<svg version="1.1" viewBox="0 0 105 100" xmlns="http://www.w3.org/2000/svg">
	<!-- paint over parent element's border on the right -->
	<path style="fill: black" d="M 105 100
		L 105 0
		L 97.5 0
		A 47.5 12.5 0 0 1 50 12.5
		A 47.5 12.5 0 0 0 2.5 25
		L 2.5 75
		A 47.5 12.5 0 0 0 50 87.5
		A 47.5 12.5 0 0 1 97.5 100
		z
"
	/>
	<!-- ivory border -->
	<path transform="rotate(-90 50 50)" style="fill: ivory" d="M 0 100
		A 15 50 0 0 0 15 50
		A 10 45 0 0 1 25 5
		L 75 5
		A 10 45 0 0 1 85 50
		A 15 50 0 0 0 100 100
		L 100 95
		A 10 45 0 0 1 90 50
		A 15 50 0 0 0 75 0
		L 25 0
		A 15 50 0 0 0 10 50
		A 10 45 0 0 1 0 95
		z
"
	/>
</svg>
